<svg viewBox="0 0 400 300" xmlns="http://www.w3.org/2000/svg"><rect width="400" height="300" fill="#1a1e2e"/><rect x="40" y="40" width="320" height="220" rx="10" fill="#2a2f45"/><rect x="40" y="40" width="320" height="30" rx="10" fill="#3a4055"/><circle cx="65" cy="55" r="5" fill="#ff5f56"/><circle cx="85" cy="55" r="5" fill="#ffbd2e"/><circle cx="105" cy="55" r="5" fill="#27c93f"/><rect x="60" y="90" width="140" height="8" rx="2" fill="#64ffda" opacity="0.6"/><rect x="60" y="110" width="200" height="8" rx="2" fill="#64ffda" opacity="0.4"/><rect x="60" y="130" width="160" height="8" rx="2" fill="#64ffda" opacity="0.6"/><rect x="60" y="150" width="180" height="8" rx="2" fill="#64ffda" opacity="0.4"/><rect x="60" y="170" width="120" height="8" rx="2" fill="#64ffda" opacity="0.6"/><rect x="60" y="190" width="160" height="8" rx="2" fill="#64ffda" opacity="0.4"/><rect x="60" y="210" width="140" height="8" rx="2" fill="#64ffda" opacity="0.6"/><text x="45" y="95" font-family="monospace" font-size="12" fill="#64ffda" opacity="0.4">1</text><text x="45" y="115" font-family="monospace" font-size="12" fill="#64ffda" opacity="0.4">2</text><text x="45" y="135" font-family="monospace" font-size="12" fill="#64ffda" opacity="0.4">3</text><text x="45" y="155" font-family="monospace" font-size="12" fill="#64ffda" opacity="0.4">4</text><text x="45" y="175" font-family="monospace" font-size="12" fill="#64ffda" opacity="0.4">5</text><text x="45" y="195" font-family="monospace" font-size="12" fill="#64ffda" opacity="0.4">6</text><text x="45" y="215" font-family="monospace" font-size="12" fill="#64ffda" opacity="0.4">7</text></svg>